{
	"asset":{
		"generator":"Khronos glTF Blender I/O v4.3.47",
		"version":"2.0"
	},
	"scene":0,
	"scenes":[
		{
			"name":"Scene",
			"nodes":[
				0
			]
		}
	],
	"nodes":[
		{
			"mesh":0,
			"name":"Building_Large_2"
		}
	],
	"materials":[
		{
			"doubleSided":true,
			"name":"MI_InteriorFloor",
			"normalTexture":{
				"index":0
			},
			"pbrMetallicRoughness":{
				"baseColorTexture":{
					"index":1
				},
				"metallicRoughnessTexture":{
					"index":2
				}
			}
		},
		{
			"doubleSided":true,
			"name":"MI_Trim_Dark",
			"normalTexture":{
				"index":3
			},
			"pbrMetallicRoughness":{
				"baseColorTexture":{
					"index":4
				},
				"metallicRoughnessTexture":{
					"index":5
				}
			}
		},
		{
			"doubleSided":true,
			"name":"MI_Trim_MetalConcrete",
			"normalTexture":{
				"index":6
			},
			"pbrMetallicRoughness":{
				"baseColorTexture":{
					"index":7
				},
				"metallicRoughnessTexture":{
					"index":8
				}
			}
		},
		{
			"doubleSided":true,
			"name":"MI_InteriorWall",
			"normalTexture":{
				"index":9
			},
			"pbrMetallicRoughness":{
				"baseColorTexture":{
					"index":10
				},
				"metallicRoughnessTexture":{
					"index":11
				}
			}
		},
		{
			"alphaMode":"BLEND",
			"doubleSided":true,
			"name":"MI_Glass",
			"pbrMetallicRoughness":{
				"baseColorFactor":[
					0.05215025693178177,
					0.05215025693178177,
					0.05215025693178177,
					0.586363673210144
				],
				"metallicFactor":0,
				"roughnessFactor":0.5
			}
		},
		{
			"doubleSided":true,
			"name":"MI_FakeInterior_2",
			"pbrMetallicRoughness":{
				"baseColorTexture":{
					"index":12
				},
				"metallicFactor":0,
				"roughnessFactor":0.5
			}
		},
		{
			"doubleSided":true,
			"name":"MI_FakeInterior_3",
			"pbrMetallicRoughness":{
				"baseColorTexture":{
					"index":13
				},
				"metallicFactor":0,
				"roughnessFactor":0.5
			}
		},
		{
			"doubleSided":true,
			"name":"MI_RedBrick",
			"normalTexture":{
				"index":14
			},
			"pbrMetallicRoughness":{
				"baseColorTexture":{
					"index":15
				},
				"metallicRoughnessTexture":{
					"index":16
				}
			}
		},
		{
			"doubleSided":true,
			"name":"MI_FakeInterior_1",
			"pbrMetallicRoughness":{
				"baseColorTexture":{
					"index":17
				},
				"metallicFactor":0,
				"roughnessFactor":0.5
			}
		},
		{
			"doubleSided":true,
			"name":"MI_FakeInterior_4",
			"pbrMetallicRoughness":{
				"baseColorTexture":{
					"index":18
				},
				"metallicFactor":0,
				"roughnessFactor":0.5
			}
		},
		{
			"doubleSided":true,
			"name":"MI_Trim",
			"normalTexture":{
				"index":19
			},
			"pbrMetallicRoughness":{
				"baseColorTexture":{
					"index":20
				},
				"metallicRoughnessTexture":{
					"index":21
				}
			}
		},
		{
			"doubleSided":true,
			"name":"MI_Asphalt",
			"normalTexture":{
				"index":22
			},
			"pbrMetallicRoughness":{
				"baseColorTexture":{
					"index":23
				},
				"metallicRoughnessTexture":{
					"index":24
				}
			}
		}
	],
	"meshes":[
		{
			"name":"Plane.235",
			"primitives":[
				{
					"attributes":{
						"POSITION":0,
						"NORMAL":1,
						"TEXCOORD_0":2,
						"TEXCOORD_1":3,
						"COLOR_0":4
					},
					"indices":5,
					"material":0
				},
				{
					"attributes":{
						"POSITION":6,
						"NORMAL":7,
						"TEXCOORD_0":8,
						"TEXCOORD_1":9,
						"COLOR_0":10
					},
					"indices":11,
					"material":1
				},
				{
					"attributes":{
						"POSITION":12,
						"NORMAL":13,
						"TEXCOORD_0":14,
						"TEXCOORD_1":15,
						"COLOR_0":16
					},
					"indices":17,
					"material":2
				},
				{
					"attributes":{
						"POSITION":18,
						"NORMAL":19,
						"TEXCOORD_0":20,
						"TEXCOORD_1":21,
						"COLOR_0":22
					},
					"indices":23,
					"material":3
				},
				{
					"attributes":{
						"POSITION":24,
						"NORMAL":25,
						"TEXCOORD_0":26,
						"TEXCOORD_1":27,
						"COLOR_0":28
					},
					"indices":29,
					"material":4
				},
				{
					"attributes":{
						"POSITION":30,
						"NORMAL":31,
						"TEXCOORD_0":32,
						"TEXCOORD_1":33,
						"COLOR_0":34
					},
					"indices":35,
					"material":5
				},
				{
					"attributes":{
						"POSITION":36,
						"NORMAL":37,
						"TEXCOORD_0":38,
						"TEXCOORD_1":39,
						"COLOR_0":40
					},
					"indices":41,
					"material":6
				},
				{
					"attributes":{
						"POSITION":42,
						"NORMAL":43,
						"TEXCOORD_0":44,
						"TEXCOORD_1":45,
						"COLOR_0":46
					},
					"indices":47,
					"material":7
				},
				{
					"attributes":{
						"POSITION":48,
						"NORMAL":49,
						"TEXCOORD_0":50,
						"TEXCOORD_1":51,
						"COLOR_0":52
					},
					"indices":53,
					"material":8
				},
				{
					"attributes":{
						"POSITION":54,
						"NORMAL":55,
						"TEXCOORD_0":56,
						"TEXCOORD_1":57,
						"COLOR_0":58
					},
					"indices":59,
					"material":9
				},
				{
					"attributes":{
						"POSITION":60,
						"NORMAL":61,
						"TEXCOORD_0":62,
						"TEXCOORD_1":63,
						"COLOR_0":64
					},
					"indices":65,
					"material":10
				},
				{
					"attributes":{
						"POSITION":66,
						"NORMAL":67,
						"TEXCOORD_0":68,
						"TEXCOORD_1":69,
						"COLOR_0":70
					},
					"indices":71,
					"material":11
				}
			]
		}
	],
	"textures":[
		{
			"sampler":0,
			"source":0
		},
		{
			"sampler":0,
			"source":1
		},
		{
			"sampler":0,
			"source":2
		},
		{
			"sampler":0,
			"source":3
		},
		{
			"sampler":0,
			"source":4
		},
		{
			"sampler":0,
			"source":5
		},
		{
			"sampler":0,
			"source":6
		},
		{
			"sampler":0,
			"source":7
		},
		{
			"sampler":0,
			"source":8
		},
		{
			"sampler":0,
			"source":9
		},
		{
			"sampler":0,
			"source":10
		},
		{
			"sampler":0,
			"source":11
		},
		{
			"sampler":0,
			"source":12
		},
		{
			"sampler":0,
			"source":13
		},
		{
			"sampler":0,
			"source":9
		},
		{
			"sampler":0,
			"source":10
		},
		{
			"sampler":0,
			"source":11
		},
		{
			"sampler":0,
			"source":13
		},
		{
			"sampler":0,
			"source":14
		},
		{
			"sampler":0,
			"source":3
		},
		{
			"sampler":0,
			"source":4
		},
		{
			"sampler":0,
			"source":5
		},
		{
			"sampler":0,
			"source":15
		},
		{
			"sampler":0,
			"source":16
		},
		{
			"sampler":0,
			"source":17
		}
	],
	"images":[
		{
			"mimeType":"image/png",
			"name":"T_MarbleFloor_Normal",
			"uri":"T_MarbleFloor_Normal.png"
		},
		{
			"mimeType":"image/png",
			"name":"T_MarbleFloor_BaseColor",
			"uri":"T_MarbleFloor_BaseColor.png"
		},
		{
			"mimeType":"image/png",
			"name":"T_MarbleFloor_ORM",
			"uri":"T_MarbleFloor_ORM.png"
		},
		{
			"mimeType":"image/png",
			"name":"T_Trim_Normal",
			"uri":"T_Trim_Normal.png"
		},
		{
			"mimeType":"image/png",
			"name":"T_Trim_BaseColor",
			"uri":"T_Trim_BaseColor.png"
		},
		{
			"mimeType":"image/png",
			"name":"T_Trim_ORM",
			"uri":"T_Trim_ORM.png"
		},
		{
			"mimeType":"image/png",
			"name":"T_MetalConcrete_Normal",
			"uri":"T_MetalConcrete_Normal.png"
		},
		{
			"mimeType":"image/png",
			"name":"T_MetalConcrete_BaseColor",
			"uri":"T_MetalConcrete_BaseColor.png"
		},
		{
			"mimeType":"image/png",
			"name":"T_MetalConcrete_ORM",
			"uri":"T_MetalConcrete_ORM.png"
		},
		{
			"mimeType":"image/png",
			"name":"T_RedBrick_Normal",
			"uri":"T_RedBrick_Normal.png"
		},
		{
			"mimeType":"image/png",
			"name":"T_RedBrick_BaseColor",
			"uri":"T_RedBrick_BaseColor.png"
		},
		{
			"mimeType":"image/png",
			"name":"T_RedBrick_ORM",
			"uri":"T_RedBrick_ORM.png"
		},
		{
			"mimeType":"image/png",
			"name":"T_lit_interior_2",
			"uri":"T_lit_interior_2.png"
		},
		{
			"mimeType":"image/png",
			"name":"T_lit_interior_1",
			"uri":"T_lit_interior_1.png"
		},
		{
			"mimeType":"image/png",
			"name":"T_dark_interior",
			"uri":"T_dark_interior.png"
		},
		{
			"mimeType":"image/png",
			"name":"T_Concrete_Normal",
			"uri":"T_Concrete_Normal.png"
		},
		{
			"mimeType":"image/png",
			"name":"T_Concrete_Asphalt_BaseColor",
			"uri":"T_Concrete_Asphalt_BaseColor.png"
		},
		{
			"mimeType":"image/png",
			"name":"T_Concrete_ORM",
			"uri":"T_Concrete_ORM.png"
		}
	],
	"accessors":[
		{
			"bufferView":0,
			"componentType":5126,
			"count":24,
			"max":[
				11,
				0,
				0
			],
			"min":[
				-9,
				0,
				-16
			],
			"type":"VEC3"
		},
		{
			"bufferView":1,
			"componentType":5126,
			"count":24,
			"type":"VEC3"
		},
		{
			"bufferView":2,
			"componentType":5126,
			"count":24,
			"type":"VEC2"
		},
		{
			"bufferView":3,
			"componentType":5126,
			"count":24,
			"type":"VEC2"
		},
		{
			"bufferView":4,
			"componentType":5123,
			"count":24,
			"normalized":true,
			"type":"VEC4"
		},
		{
			"bufferView":5,
			"componentType":5123,
			"count":36,
			"type":"SCALAR"
		},
		{
			"bufferView":6,
			"componentType":5126,
			"count":440,
			"max":[
				11,
				0.4739086627960205,
				0.04201030731201172
			],
			"min":[
				-9.042010307312012,
				0,
				-14
			],
			"type":"VEC3"
		},
		{
			"bufferView":7,
			"componentType":5126,
			"count":440,
			"type":"VEC3"
		},
		{
			"bufferView":8,
			"componentType":5126,
			"count":440,
			"type":"VEC2"
		},
		{
			"bufferView":9,
			"componentType":5126,
			"count":440,
			"type":"VEC2"
		},
		{
			"bufferView":10,
			"componentType":5123,
			"count":440,
			"normalized":true,
			"type":"VEC4"
		},
		{
			"bufferView":11,
			"componentType":5123,
			"count":912,
			"type":"SCALAR"
		},
		{
			"bufferView":12,
			"componentType":5126,
			"count":54316,
			"max":[
				11.32205581665039,
				28.000038146972656,
				0.3222980499267578
			],
			"min":[
				-9.322053909301758,
				0,
				-16.322298049926758
			],
			"type":"VEC3"
		},
		{
			"bufferView":13,
			"componentType":5126,
			"count":54316,
			"type":"VEC3"
		},
		{
			"bufferView":14,
			"componentType":5126,
			"count":54316,
			"type":"VEC2"
		},
		{
			"bufferView":15,
			"componentType":5126,
			"count":54316,
			"type":"VEC2"
		},
		{
			"bufferView":16,
			"componentType":5123,
			"count":54316,
			"normalized":true,
			"type":"VEC4"
		},
		{
			"bufferView":17,
			"componentType":5123,
			"count":115818,
			"type":"SCALAR"
		},
		{
			"bufferView":18,
			"componentType":5126,
			"count":3038,
			"max":[
				11,
				27,
				0
			],
			"min":[
				-9,
				0,
				-16
			],
			"type":"VEC3"
		},
		{
			"bufferView":19,
			"componentType":5126,
			"count":3038,
			"type":"VEC3"
		},
		{
			"bufferView":20,
			"componentType":5126,
			"count":3038,
			"type":"VEC2"
		},
		{
			"bufferView":21,
			"componentType":5126,
			"count":3038,
			"type":"VEC2"
		},
		{
			"bufferView":22,
			"componentType":5123,
			"count":3038,
			"normalized":true,
			"type":"VEC4"
		},
		{
			"bufferView":23,
			"componentType":5123,
			"count":5850,
			"type":"SCALAR"
		},
		{
			"bufferView":24,
			"componentType":5126,
			"count":1872,
			"max":[
				10.902606964111328,
				26.700000762939453,
				-0.06676006317138672
			],
			"min":[
				-8.93324089050293,
				0.024771062657237053,
				-15.902607917785645
			],
			"type":"VEC3"
		},
		{
			"bufferView":25,
			"componentType":5126,
			"count":1872,
			"type":"VEC3"
		},
		{
			"bufferView":26,
			"componentType":5126,
			"count":1872,
			"type":"VEC2"
		},
		{
			"bufferView":27,
			"componentType":5126,
			"count":1872,
			"type":"VEC2"
		},
		{
			"bufferView":28,
			"componentType":5123,
			"count":1872,
			"normalized":true,
			"type":"VEC4"
		},
		{
			"bufferView":29,
			"componentType":5123,
			"count":3252,
			"type":"SCALAR"
		},
		{
			"bufferView":30,
			"componentType":5126,
			"count":96,
			"max":[
				10.987260818481445,
				26.828357696533203,
				-0.06820297241210938
			],
			"min":[
				-8.931797981262207,
				0.20216023921966553,
				-15.606643676757812
			],
			"type":"VEC3"
		},
		{
			"bufferView":31,
			"componentType":5126,
			"count":96,
			"type":"VEC3"
		},
		{
			"bufferView":32,
			"componentType":5126,
			"count":96,
			"type":"VEC2"
		},
		{
			"bufferView":33,
			"componentType":5126,
			"count":96,
			"type":"VEC2"
		},
		{
			"bufferView":34,
			"componentType":5123,
			"count":96,
			"normalized":true,
			"type":"VEC4"
		},
		{
			"bufferView":35,
			"componentType":5123,
			"count":144,
			"type":"SCALAR"
		},
		{
			"bufferView":36,
			"componentType":5126,
			"count":102,
			"max":[
				10.606643676757812,
				26.828357696533203,
				-0.06820297241210938
			],
			"min":[
				-8.93179702758789,
				0.20216023921966553,
				-15.606643676757812
			],
			"type":"VEC3"
		},
		{
			"bufferView":37,
			"componentType":5126,
			"count":102,
			"type":"VEC3"
		},
		{
			"bufferView":38,
			"componentType":5126,
			"count":102,
			"type":"VEC2"
		},
		{
			"bufferView":39,
			"componentType":5126,
			"count":102,
			"type":"VEC2"
		},
		{
			"bufferView":40,
			"componentType":5123,
			"count":102,
			"normalized":true,
			"type":"VEC4"
		},
		{
			"bufferView":41,
			"componentType":5123,
			"count":156,
			"type":"SCALAR"
		},
		{
			"bufferView":42,
			"componentType":5126,
			"count":3208,
			"max":[
				11.000003814697266,
				27,
				0
			],
			"min":[
				-9.000000953674316,
				0,
				-16
			],
			"type":"VEC3"
		},
		{
			"bufferView":43,
			"componentType":5126,
			"count":3208,
			"type":"VEC3"
		},
		{
			"bufferView":44,
			"componentType":5126,
			"count":3208,
			"type":"VEC2"
		},
		{
			"bufferView":45,
			"componentType":5126,
			"count":3208,
			"type":"VEC2"
		},
		{
			"bufferView":46,
			"componentType":5123,
			"count":3208,
			"normalized":true,
			"type":"VEC4"
		},
		{
			"bufferView":47,
			"componentType":5123,
			"count":7620,
			"type":"SCALAR"
		},
		{
			"bufferView":48,
			"componentType":5126,
			"count":84,
			"max":[
				10.606643676757812,
				26.828357696533203,
				-0.012739181518554688
			],
			"min":[
				-8.987260818481445,
				0.20216023921966553,
				-15.987260818481445
			],
			"type":"VEC3"
		},
		{
			"bufferView":49,
			"componentType":5126,
			"count":84,
			"type":"VEC3"
		},
		{
			"bufferView":50,
			"componentType":5126,
			"count":84,
			"type":"VEC2"
		},
		{
			"bufferView":51,
			"componentType":5126,
			"count":84,
			"type":"VEC2"
		},
		{
			"bufferView":52,
			"componentType":5123,
			"count":84,
			"normalized":true,
			"type":"VEC4"
		},
		{
			"bufferView":53,
			"componentType":5123,
			"count":132,
			"type":"SCALAR"
		},
		{
			"bufferView":54,
			"componentType":5126,
			"count":62,
			"max":[
				10.606643676757812,
				26.828357696533203,
				-0.06820297241210938
			],
			"min":[
				-8.93179702758789,
				0.20216023921966553,
				-11.606643676757812
			],
			"type":"VEC3"
		},
		{
			"bufferView":55,
			"componentType":5126,
			"count":62,
			"type":"VEC3"
		},
		{
			"bufferView":56,
			"componentType":5126,
			"count":62,
			"type":"VEC2"
		},
		{
			"bufferView":57,
			"componentType":5126,
			"count":62,
			"type":"VEC2"
		},
		{
			"bufferView":58,
			"componentType":5123,
			"count":62,
			"normalized":true,
			"type":"VEC4"
		},
		{
			"bufferView":59,
			"componentType":5123,
			"count":96,
			"type":"SCALAR"
		},
		{
			"bufferView":60,
			"componentType":5126,
			"count":762,
			"max":[
				1.151998519897461,
				3,
				0.22254657745361328
			],
			"min":[
				-1.151998519897461,
				0,
				-0.25527334213256836
			],
			"type":"VEC3"
		},
		{
			"bufferView":61,
			"componentType":5126,
			"count":762,
			"type":"VEC3"
		},
		{
			"bufferView":62,
			"componentType":5126,
			"count":762,
			"type":"VEC2"
		},
		{
			"bufferView":63,
			"componentType":5126,
			"count":762,
			"type":"VEC2"
		},
		{
			"bufferView":64,
			"componentType":5123,
			"count":762,
			"normalized":true,
			"type":"VEC4"
		},
		{
			"bufferView":65,
			"componentType":5123,
			"count":1278,
			"type":"SCALAR"
		},
		{
			"bufferView":66,
			"componentType":5126,
			"count":48,
			"max":[
				11,
				27.799999237060547,
				0
			],
			"min":[
				-9,
				26.9539794921875,
				-16
			],
			"type":"VEC3"
		},
		{
			"bufferView":67,
			"componentType":5126,
			"count":48,
			"type":"VEC3"
		},
		{
			"bufferView":68,
			"componentType":5126,
			"count":48,
			"type":"VEC2"
		},
		{
			"bufferView":69,
			"componentType":5126,
			"count":48,
			"type":"VEC2"
		},
		{
			"bufferView":70,
			"componentType":5123,
			"count":48,
			"normalized":true,
			"type":"VEC4"
		},
		{
			"bufferView":71,
			"componentType":5123,
			"count":72,
			"type":"SCALAR"
		}
	],
	"bufferViews":[
		{
			"buffer":0,
			"byteLength":288,
			"byteOffset":0,
			"target":34962
		},
		{
			"buffer":0,
			"byteLength":288,
			"byteOffset":288,
			"target":34962
		},
		{
			"buffer":0,
			"byteLength":192,
			"byteOffset":576,
			"target":34962
		},
		{
			"buffer":0,
			"byteLength":192,
			"byteOffset":768,
			"target":34962
		},
		{
			"buffer":0,
			"byteLength":192,
			"byteOffset":960,
			"target":34962
		},
		{
			"buffer":0,
			"byteLength":72,
			"byteOffset":1152,
			"target":34963
		},
		{
			"buffer":0,
			"byteLength":5280,
			"byteOffset":1224,
			"target":34962
		},
		{
			"buffer":0,
			"byteLength":5280,
			"byteOffset":6504,
			"target":34962
		},
		{
			"buffer":0,
			"byteLength":3520,
			"byteOffset":11784,
			"target":34962
		},
		{
			"buffer":0,
			"byteLength":3520,
			"byteOffset":15304,
			"target":34962
		},
		{
			"buffer":0,
			"byteLength":3520,
			"byteOffset":18824,
			"target":34962
		},
		{
			"buffer":0,
			"byteLength":1824,
			"byteOffset":22344,
			"target":34963
		},
		{
			"buffer":0,
			"byteLength":651792,
			"byteOffset":24168,
			"target":34962
		},
		{
			"buffer":0,
			"byteLength":651792,
			"byteOffset":675960,
			"target":34962
		},
		{
			"buffer":0,
			"byteLength":434528,
			"byteOffset":1327752,
			"target":34962
		},
		{
			"buffer":0,
			"byteLength":434528,
			"byteOffset":1762280,
			"target":34962
		},
		{
			"buffer":0,
			"byteLength":434528,
			"byteOffset":2196808,
			"target":34962
		},
		{
			"buffer":0,
			"byteLength":231636,
			"byteOffset":2631336,
			"target":34963
		},
		{
			"buffer":0,
			"byteLength":36456,
			"byteOffset":2862972,
			"target":34962
		},
		{
			"buffer":0,
			"byteLength":36456,
			"byteOffset":2899428,
			"target":34962
		},
		{
			"buffer":0,
			"byteLength":24304,
			"byteOffset":2935884,
			"target":34962
		},
		{
			"buffer":0,
			"byteLength":24304,
			"byteOffset":2960188,
			"target":34962
		},
		{
			"buffer":0,
			"byteLength":24304,
			"byteOffset":2984492,
			"target":34962
		},
		{
			"buffer":0,
			"byteLength":11700,
			"byteOffset":3008796,
			"target":34963
		},
		{
			"buffer":0,
			"byteLength":22464,
			"byteOffset":3020496,
			"target":34962
		},
		{
			"buffer":0,
			"byteLength":22464,
			"byteOffset":3042960,
			"target":34962
		},
		{
			"buffer":0,
			"byteLength":14976,
			"byteOffset":3065424,
			"target":34962
		},
		{
			"buffer":0,
			"byteLength":14976,
			"byteOffset":3080400,
			"target":34962
		},
		{
			"buffer":0,
			"byteLength":14976,
			"byteOffset":3095376,
			"target":34962
		},
		{
			"buffer":0,
			"byteLength":6504,
			"byteOffset":3110352,
			"target":34963
		},
		{
			"buffer":0,
			"byteLength":1152,
			"byteOffset":3116856,
			"target":34962
		},
		{
			"buffer":0,
			"byteLength":1152,
			"byteOffset":3118008,
			"target":34962
		},
		{
			"buffer":0,
			"byteLength":768,
			"byteOffset":3119160,
			"target":34962
		},
		{
			"buffer":0,
			"byteLength":768,
			"byteOffset":3119928,
			"target":34962
		},
		{
			"buffer":0,
			"byteLength":768,
			"byteOffset":3120696,
			"target":34962
		},
		{
			"buffer":0,
			"byteLength":288,
			"byteOffset":3121464,
			"target":34963
		},
		{
			"buffer":0,
			"byteLength":1224,
			"byteOffset":3121752,
			"target":34962
		},
		{
			"buffer":0,
			"byteLength":1224,
			"byteOffset":3122976,
			"target":34962
		},
		{
			"buffer":0,
			"byteLength":816,
			"byteOffset":3124200,
			"target":34962
		},
		{
			"buffer":0,
			"byteLength":816,
			"byteOffset":3125016,
			"target":34962
		},
		{
			"buffer":0,
			"byteLength":816,
			"byteOffset":3125832,
			"target":34962
		},
		{
			"buffer":0,
			"byteLength":312,
			"byteOffset":3126648,
			"target":34963
		},
		{
			"buffer":0,
			"byteLength":38496,
			"byteOffset":3126960,
			"target":34962
		},
		{
			"buffer":0,
			"byteLength":38496,
			"byteOffset":3165456,
			"target":34962
		},
		{
			"buffer":0,
			"byteLength":25664,
			"byteOffset":3203952,
			"target":34962
		},
		{
			"buffer":0,
			"byteLength":25664,
			"byteOffset":3229616,
			"target":34962
		},
		{
			"buffer":0,
			"byteLength":25664,
			"byteOffset":3255280,
			"target":34962
		},
		{
			"buffer":0,
			"byteLength":15240,
			"byteOffset":3280944,
			"target":34963
		},
		{
			"buffer":0,
			"byteLength":1008,
			"byteOffset":3296184,
			"target":34962
		},
		{
			"buffer":0,
			"byteLength":1008,
			"byteOffset":3297192,
			"target":34962
		},
		{
			"buffer":0,
			"byteLength":672,
			"byteOffset":3298200,
			"target":34962
		},
		{
			"buffer":0,
			"byteLength":672,
			"byteOffset":3298872,
			"target":34962
		},
		{
			"buffer":0,
			"byteLength":672,
			"byteOffset":3299544,
			"target":34962
		},
		{
			"buffer":0,
			"byteLength":264,
			"byteOffset":3300216,
			"target":34963
		},
		{
			"buffer":0,
			"byteLength":744,
			"byteOffset":3300480,
			"target":34962
		},
		{
			"buffer":0,
			"byteLength":744,
			"byteOffset":3301224,
			"target":34962
		},
		{
			"buffer":0,
			"byteLength":496,
			"byteOffset":3301968,
			"target":34962
		},
		{
			"buffer":0,
			"byteLength":496,
			"byteOffset":3302464,
			"target":34962
		},
		{
			"buffer":0,
			"byteLength":496,
			"byteOffset":3302960,
			"target":34962
		},
		{
			"buffer":0,
			"byteLength":192,
			"byteOffset":3303456,
			"target":34963
		},
		{
			"buffer":0,
			"byteLength":9144,
			"byteOffset":3303648,
			"target":34962
		},
		{
			"buffer":0,
			"byteLength":9144,
			"byteOffset":3312792,
			"target":34962
		},
		{
			"buffer":0,
			"byteLength":6096,
			"byteOffset":3321936,
			"target":34962
		},
		{
			"buffer":0,
			"byteLength":6096,
			"byteOffset":3328032,
			"target":34962
		},
		{
			"buffer":0,
			"byteLength":6096,
			"byteOffset":3334128,
			"target":34962
		},
		{
			"buffer":0,
			"byteLength":2556,
			"byteOffset":3340224,
			"target":34963
		},
		{
			"buffer":0,
			"byteLength":576,
			"byteOffset":3342780,
			"target":34962
		},
		{
			"buffer":0,
			"byteLength":576,
			"byteOffset":3343356,
			"target":34962
		},
		{
			"buffer":0,
			"byteLength":384,
			"byteOffset":3343932,
			"target":34962
		},
		{
			"buffer":0,
			"byteLength":384,
			"byteOffset":3344316,
			"target":34962
		},
		{
			"buffer":0,
			"byteLength":384,
			"byteOffset":3344700,
			"target":34962
		},
		{
			"buffer":0,
			"byteLength":144,
			"byteOffset":3345084,
			"target":34963
		}
	],
	"samplers":[
		{
			"magFilter":9729,
			"minFilter":9987
		}
	],
	"buffers":[
		{
			"byteLength":3345228,
			"uri":"Building_Large_2.bin"
		}
	]
}
